<?xml version="1.0" standalone="no"?>
<!DOCTYPE svg PUBLIC "-//W3C//DTD SVG 20010904//EN"
 "http://www.w3.org/TR/2001/REC-SVG-20010904/DTD/svg10.dtd">
<svg version="1.0" xmlns="http://www.w3.org/2000/svg"
 width="1199.000000pt" height="1280.000000pt" viewBox="0 0 1199.000000 1280.000000"
 preserveAspectRatio="xMidYMid meet">
<g transform="translate(0.000000,1280.000000) scale(0.100000,-0.100000)"
fill="#000000" stroke="none">
<path d="M8645 12201 l-50 -6 -6 -52 c-18 -146 -131 -246 -279 -246 -82 0
-142 25 -200 83 l-43 43 -31 -18 c-42 -24 -156 -97 -156 -100 0 -1 9 -23 20
-48 24 -54 28 -143 9 -207 -20 -66 -109 -153 -179 -174 -69 -21 -112 -20 -178
3 l-53 18 -25 -38 c-13 -21 -41 -73 -61 -115 l-38 -76 25 -17 c97 -64 140
-139 140 -245 0 -90 -29 -156 -93 -212 -43 -38 -69 -50 -157 -71 -34 -8 -35
-10 -38 -61 -3 -49 -2 -52 25 -57 151 -33 243 -139 243 -280 0 -82 -26 -143
-87 -202 -29 -29 -53 -57 -53 -64 0 -21 104 -209 116 -209 6 0 29 7 50 16 22
9 66 17 99 17 203 2 338 -209 252 -395 l-26 -58 32 -24 c18 -14 65 -45 106
-69 l74 -45 46 47 c58 59 110 84 188 89 152 10 278 -94 299 -246 8 -60 11 -62
141 -62 l91 0 7 43 c11 62 49 130 96 170 126 108 326 82 416 -54 14 -21 32
-39 39 -39 17 0 204 96 222 114 10 10 9 20 -4 52 -24 57 -21 148 6 212 25 58
91 125 148 149 57 25 166 22 225 -4 l48 -22 60 92 c32 50 59 96 59 101 0 5
-21 31 -46 58 -60 64 -77 107 -78 193 0 56 5 80 26 120 47 90 138 154 220 155
26 0 40 6 48 19 10 21 14 320 4 357 -5 18 -15 22 -65 27 -181 16 -296 186
-245 362 14 45 29 69 72 112 30 30 54 59 54 64 0 18 -115 189 -126 189 -6 0
-28 -7 -47 -15 -47 -19 -141 -19 -199 1 -134 45 -212 195 -174 334 18 66 22
61 -108 127 l-89 45 -44 -52 c-62 -70 -129 -103 -213 -103 -145 -1 -260 97
-285 242 l-7 41 -86 -2 c-48 0 -109 -4 -137 -7z m284 -1046 c92 -24 163 -65
232 -134 105 -104 152 -219 150 -366 -2 -264 -197 -472 -466 -500 -76 -8 -189
15 -271 55 -267 131 -362 479 -198 728 70 106 176 184 295 216 70 19 190 20
258 1z"/>
<path d="M4956 11628 c-3 -7 -12 -40 -21 -73 -32 -116 -91 -212 -189 -310
-146 -145 -294 -207 -496 -208 -315 0 -587 198 -685 500 -15 50 -18 53 -43 47
-106 -24 -241 -60 -322 -86 -141 -44 -350 -128 -350 -140 0 -5 7 -38 16 -72
23 -83 22 -260 0 -345 -22 -81 -64 -175 -106 -236 -80 -117 -222 -222 -365
-271 -72 -25 -94 -28 -215 -29 -115 0 -146 4 -210 23 -97 31 -171 69 -245 127
l-60 46 -131 -133 c-71 -73 -165 -175 -208 -226 l-77 -94 56 -56 c139 -140
208 -309 208 -507 -1 -125 -19 -202 -79 -324 -89 -180 -257 -314 -469 -371
-74 -20 -224 -23 -300 -7 -38 8 -74 11 -79 7 -24 -23 -129 -464 -151 -635 l-6
-51 63 -13 c210 -43 396 -188 492 -383 54 -109 76 -200 76 -318 0 -118 -22
-209 -74 -316 -52 -104 -145 -212 -238 -275 -61 -42 -170 -92 -225 -104 -38
-8 -39 8 9 -176 16 -63 33 -121 37 -127 5 -9 23 -9 71 -1 73 12 193 5 278 -17
31 -8 99 -35 151 -60 166 -82 300 -238 356 -418 77 -242 17 -510 -156 -700
-27 -30 -49 -57 -49 -61 0 -13 144 -188 257 -311 101 -110 191 -194 208 -194
4 0 33 24 65 52 232 213 581 246 854 81 80 -49 192 -162 239 -243 106 -182
127 -444 51 -625 -10 -26 -11 -35 -1 -42 51 -40 611 -213 648 -201 6 2 21 34
34 72 36 103 81 172 175 267 71 72 101 93 180 132 54 27 127 54 168 62 265 54
536 -42 705 -250 55 -68 120 -195 138 -270 18 -74 17 -73 111 -59 157 25 416
85 492 114 24 9 24 9 9 72 -21 90 -13 281 17 368 80 238 264 413 500 477 89
23 272 23 360 -1 76 -21 186 -74 250 -121 40 -30 160 -149 160 -159 0 -3 -21
-40 -47 -83 -40 -68 -118 -226 -136 -275 -4 -12 7 -24 46 -46 61 -35 146 -121
176 -180 92 -180 56 -400 -86 -533 -85 -80 -197 -129 -294 -129 l-36 0 -7 -54
c-3 -30 -3 -74 0 -99 l6 -44 51 -6 c56 -7 158 -52 214 -94 55 -42 119 -135
143 -209 63 -190 -11 -412 -171 -516 -27 -17 -49 -36 -49 -42 0 -17 103 -226
150 -304 l41 -70 67 31 c64 30 73 32 187 32 114 0 123 -2 188 -32 80 -38 173
-122 210 -191 75 -139 74 -296 -4 -443 -17 -32 -28 -63 -24 -69 9 -15 195
-139 279 -185 l69 -38 36 44 c58 71 102 108 166 139 140 69 281 66 424 -11
134 -70 231 -233 231 -385 l0 -51 53 -6 c100 -12 284 -20 311 -13 22 5 26 12
26 44 0 45 24 131 52 186 27 53 112 142 166 173 138 81 318 82 457 3 61 -35
144 -120 174 -178 16 -31 25 -40 39 -35 41 14 243 115 315 158 63 37 77 50 71
63 -44 99 -56 159 -51 247 8 151 63 255 178 340 78 57 166 85 269 85 81 0 187
-26 225 -54 11 -9 27 -16 36 -16 15 0 123 156 187 271 l31 55 -58 52 c-117
102 -166 218 -159 371 3 74 9 98 40 162 69 147 209 245 365 258 l78 6 8 60
c10 78 10 443 0 520 l-8 60 -85 7 c-136 10 -248 63 -328 153 -160 181 -146
456 30 621 29 27 64 57 78 66 l25 16 -25 48 c-30 58 -176 280 -189 288 -5 4
-32 -5 -59 -19 -115 -57 -279 -55 -401 6 -62 31 -140 101 -177 161 -67 106
-86 266 -45 386 12 35 19 67 16 71 -11 19 -222 135 -318 174 l-37 16 -33 -52
c-72 -112 -190 -188 -320 -206 -239 -34 -463 130 -507 369 -7 36 -14 71 -17
79 -3 12 -34 13 -186 8 -100 -4 -201 -9 -224 -13 -42 -6 -43 -8 -43 -44 0
-208 -154 -398 -358 -441 -156 -32 -313 18 -428 137 l-64 66 -65 -37 c-77 -43
-245 -154 -245 -162 0 -3 13 -33 29 -67 83 -172 52 -372 -78 -509 -93 -98
-208 -142 -350 -135 -94 5 -204 41 -208 68 -1 8 27 38 65 67 88 68 303 269
387 360 l66 72 -54 60 c-64 71 -116 167 -149 271 -19 61 -23 97 -23 195 1 180
39 297 145 437 65 86 142 147 255 203 170 85 347 97 552 39 26 -7 32 4 97 196
41 118 121 409 114 414 -2 2 -31 13 -65 25 -140 52 -295 184 -369 316 -67 121
-88 202 -88 350 -1 148 17 225 81 348 85 161 292 321 456 352 20 4 40 11 43
16 14 23 -61 392 -127 617 -31 109 -126 371 -137 384 -4 3 -41 -5 -82 -20 -67
-23 -90 -26 -215 -27 -109 0 -153 4 -200 18 -314 97 -516 363 -517 681 -1 196
60 351 196 502 l46 52 -143 138 c-78 77 -189 176 -245 222 l-104 83 -57 -53
c-75 -69 -150 -113 -258 -151 -83 -30 -97 -32 -228 -31 -127 0 -147 2 -220 28
-184 64 -323 181 -409 346 -67 127 -98 302 -76 434 6 38 9 70 8 71 -11 11
-278 81 -398 105 -202 40 -249 45 -254 28z m-301 -2663 c471 -97 850 -430 999
-876 49 -146 67 -259 67 -424 1 -616 -410 -1131 -1026 -1287 -79 -20 -115 -23
-290 -23 -177 0 -211 3 -295 24 -253 63 -457 178 -635 356 -644 643 -466 1715
351 2119 128 63 293 111 444 130 71 9 308 -3 385 -19z m4540 -5059 c152 -43
320 -152 421 -274 67 -81 137 -221 164 -327 29 -108 29 -281 1 -393 -73 -294
-291 -518 -588 -604 -111 -33 -323 -32 -436 0 -85 24 -195 76 -260 123 -112
80 -228 222 -283 344 -65 149 -84 372 -44 531 25 101 95 242 157 319 118 145
300 256 484 295 69 14 314 5 384 -14z"/>
</g>
</svg>
